<svg width="24.981079" height="25.000000" viewBox="0 0 24.9811 25" fill="none" xmlns="http://www.w3.org/2000/svg" xmlns:xlink="http://www.w3.org/1999/xlink">
	<desc>
			Created with Pixso.
	</desc>
	<defs>
		<clipPath id="clip1_682">
			<rect width="24.981075" height="25.000000" fill="white" fill-opacity="0"/>
		</clipPath>
	</defs>
	<g clip-path="url(#clip1_682)">
		<path d="M18.931 21.875C18.0432 21.875 17.1754 21.6115 16.4373 21.1179C15.6991 20.6243 15.1237 19.9227 14.7839 19.1019C14.4442 18.2811 14.3553 17.3778 14.5286 16.5064C14.7017 15.635 15.1293 14.8346 15.757 14.2064C16.3848 13.5781 17.1846 13.1503 18.0553 12.9769C18.926 12.8036 19.8286 12.8926 20.6488 13.2326C21.469 13.5726 22.1702 14.1483 22.6633 14.8871C23.1566 15.6258 23.4198 16.4944 23.4198 17.3828C23.4186 18.5738 22.9452 19.7157 22.1036 20.5578C21.2621 21.4 20.1211 21.8737 18.931 21.875ZM18.931 14.4531C18.3521 14.4531 17.786 14.6249 17.3047 14.9469C16.8232 15.2688 16.448 15.7263 16.2264 16.2617C16.0049 16.797 15.9469 17.3861 16.0598 17.9544C16.1727 18.5227 16.4517 19.0447 16.861 19.4544C17.2704 19.8641 17.7921 20.1432 18.36 20.2562C18.9279 20.3693 19.5164 20.3112 20.0514 20.0895C20.5863 19.8677 21.0435 19.4922 21.3651 19.0105C21.6868 18.5287 21.8585 17.9622 21.8585 17.3828C21.8577 16.6061 21.549 15.8615 21.0001 15.3122C20.4513 14.763 19.7072 14.454 18.931 14.4531Z" fill="#1D2E5B" fill-opacity="1.000000" fill-rule="nonzero"/>
		<path d="M6.05017 21.875C5.16235 21.875 4.29456 21.6115 3.5564 21.1179C2.81824 20.6243 2.2428 19.9227 1.90308 19.1019C1.56335 18.2811 1.47449 17.3778 1.64771 16.5064C1.8208 15.635 2.24841 14.8346 2.8761 14.2064C3.50391 13.5781 4.30371 13.1503 5.17444 12.9769C6.04517 12.8036 6.94775 12.8926 7.76794 13.2326C8.58813 13.5726 9.28931 14.1483 9.78247 14.8871C10.2758 15.6258 10.5389 16.4944 10.5389 17.3828C10.5377 18.5738 10.0643 19.7157 9.22278 20.5578C8.38123 21.4 7.24023 21.8737 6.05017 21.875ZM6.05017 14.4531C5.47119 14.4531 4.90515 14.6249 4.42383 14.9469C3.94238 15.2688 3.56714 15.7263 3.34558 16.2617C3.12402 16.797 3.06604 17.3861 3.17896 17.9544C3.29187 18.5227 3.5708 19.0447 3.9801 19.4544C4.38953 19.8641 4.91125 20.1432 5.47913 20.2562C6.047 20.3693 6.6355 20.3112 7.17053 20.0895C7.70544 19.8677 8.1626 19.4922 8.48425 19.0105C8.80591 18.5287 8.97766 17.9622 8.97766 17.3828C8.97681 16.6061 8.66809 15.8615 8.11926 15.3122C7.57043 14.763 6.82629 14.454 6.05017 14.4531Z" fill="#1D2E5B" fill-opacity="1.000000" fill-rule="nonzero"/>
		<path d="M15.6132 6.25006C15.8188 6.25076 16.0226 6.21066 16.2126 6.13211C16.4027 6.05353 16.5753 5.93802 16.7206 5.79227C16.8657 5.64651 16.9806 5.47342 17.0586 5.28296C17.1365 5.0925 17.1759 4.88846 17.1746 4.68268C17.1768 4.47791 17.1383 4.27472 17.0612 4.08505C16.984 3.89536 16.8699 3.72296 16.7255 3.57791C16.5811 3.43289 16.4091 3.31815 16.2197 3.24039C16.0305 3.16263 15.8276 3.12341 15.6229 3.12506C15.418 3.12442 15.2147 3.16418 15.0251 3.24213C14.8354 3.32004 14.663 3.4346 14.5176 3.57925C14.3721 3.72388 14.2566 3.89578 14.1775 4.08508C14.0984 4.27441 14.0574 4.47748 14.0568 4.68268C14.0562 4.88785 14.0958 5.09116 14.1737 5.28098C14.2516 5.47079 14.3661 5.6434 14.5106 5.78894C14.6552 5.93451 14.8269 6.05014 15.0161 6.12924C15.2053 6.20834 15.4082 6.24942 15.6132 6.25006Z" fill="#1D2E5B" fill-opacity="1.000000" fill-rule="nonzero"/>
		<path d="M17.9331 9.37509L15.798 9.37509C15.7629 9.37512 15.7286 9.36569 15.6985 9.34781C15.6683 9.32996 15.6436 9.30429 15.6267 9.27353L14.0781 6.4332C13.969 6.22214 13.8118 6.03973 13.6191 5.90079C13.4265 5.76181 13.2039 5.6702 12.9692 5.63336C12.7346 5.5965 12.4946 5.61545 12.2688 5.68869C12.0428 5.7619 11.8373 5.88733 11.6688 6.05478L8.26025 9.49228C7.97388 9.78479 7.8114 10.1766 7.80652 10.586C7.80652 11.4356 8.42126 11.7384 8.70911 11.9093C10.0997 12.711 11.079 13.2975 11.6161 13.6231C11.6447 13.6406 11.6683 13.665 11.6847 13.6942C11.7012 13.7233 11.7097 13.7562 11.7098 13.7896L11.7098 17.1646C11.7098 17.5851 12.0328 17.9459 12.4529 17.9669C12.5583 17.972 12.6638 17.9556 12.7627 17.9188C12.8617 17.8819 12.9521 17.8253 13.0287 17.7525C13.1051 17.6796 13.166 17.592 13.2078 17.4949C13.2494 17.3978 13.271 17.2933 13.2711 17.1876L13.2711 12.9884C13.2712 12.8644 13.2418 12.7421 13.1853 12.6317C13.1288 12.5214 13.0468 12.426 12.9462 12.3536L11.1409 11.0543C11.1183 11.0381 11.0994 11.0172 11.0854 10.993C11.0715 10.9689 11.0629 10.942 11.0602 10.9142C11.0575 10.8865 11.0608 10.8585 11.0698 10.8321C11.0789 10.8057 11.0935 10.7816 11.1125 10.7613L13.1619 8.57431C13.1829 8.55182 13.2089 8.53461 13.2378 8.52411C13.2667 8.51358 13.2977 8.51007 13.3282 8.51382C13.3588 8.51758 13.3881 8.52853 13.4136 8.54575C13.4391 8.56296 13.4601 8.58597 13.4751 8.61288L14.5397 10.5357C14.6074 10.6577 14.7064 10.7592 14.8265 10.8299C14.9467 10.9005 15.0835 10.9377 15.2228 10.9376L17.9551 10.9376C18.0608 10.9377 18.1655 10.9164 18.2628 10.8748C18.36 10.8332 18.4478 10.7722 18.5208 10.6956C18.5939 10.6191 18.6505 10.5284 18.6875 10.4293C18.7244 10.3301 18.7408 10.2245 18.7357 10.1187C18.7152 9.69833 18.3533 9.37509 17.9331 9.37509Z" fill="#1D2E5B" fill-opacity="1.000000" fill-rule="nonzero"/>
	</g>
</svg>
