<svg width="17.986328" height="20.000000" viewBox="0 0 17.9863 20" fill="none" xmlns="http://www.w3.org/2000/svg" xmlns:xlink="http://www.w3.org/1999/xlink">
	<desc>
			Created with Pixso.
	</desc>
	<defs>
		<clipPath id="clip1_587">
			<rect id="icon_bus" width="17.986374" height="20.000000" fill="white" fill-opacity="0"/>
		</clipPath>
	</defs>
	<rect id="icon_bus" width="17.986374" height="20.000000" fill="#FFFFFF" fill-opacity="0"/>
	<g clip-path="url(#clip1_587)">
		<path id="Vector" d="M4.49756 13.5714C4.49756 13.1771 4.3512 12.8404 4.05859 12.5614C3.76599 12.2824 3.41284 12.1429 2.99927 12.1429C2.58569 12.1429 2.23267 12.2824 1.93994 12.5614C1.64734 12.8404 1.5011 13.1771 1.5011 13.5714C1.5011 13.9658 1.64734 14.3025 1.93994 14.5815C2.23267 14.8605 2.58569 15 2.99927 15C3.41284 15 3.76599 14.8605 4.05859 14.5815C4.3512 14.3025 4.49756 13.9658 4.49756 13.5714ZM16.4834 13.5714C16.4834 13.1771 16.3372 12.8404 16.0446 12.5614C15.7518 12.2824 15.3988 12.1429 14.9852 12.1429C14.5717 12.1429 14.2185 12.2824 13.9259 12.5614C13.6333 12.8404 13.4869 13.1771 13.4869 13.5714C13.4869 13.9658 13.6333 14.3025 13.9259 14.5815C14.2185 14.8605 14.5717 15 14.9852 15C15.3988 15 15.7518 14.8605 16.0446 14.5815C16.3372 14.3025 16.4834 13.9658 16.4834 13.5714ZM15.9451 9.15178L15.1023 4.86607C15.0632 4.69495 14.9755 4.55544 14.8389 4.44754C14.7024 4.33966 14.5443 4.28572 14.3649 4.28572L3.61963 4.28572C3.44019 4.28572 3.2821 4.33966 3.14563 4.44754C3.00903 4.55544 2.92126 4.69495 2.8822 4.86607L2.03943 9.15178C2.00049 9.375 2.05505 9.57217 2.20337 9.7433C2.35156 9.91443 2.54285 10 2.77686 10L15.2076 10C15.4417 10 15.6329 9.91443 15.7811 9.7433C15.9294 9.57217 15.984 9.375 15.9451 9.15178ZM13.2997 2.32143C13.2997 2.17262 13.2451 2.04613 13.1359 1.94197C13.0266 1.8378 12.8939 1.78572 12.7378 1.78572L5.2467 1.78572C5.09058 1.78572 4.95789 1.8378 4.84863 1.94197C4.73938 2.04613 4.68481 2.17262 4.68481 2.32143C4.68481 2.47025 4.73938 2.59673 4.84863 2.7009C4.95789 2.80505 5.09058 2.85715 5.2467 2.85715L12.7378 2.85715C12.8939 2.85715 13.0266 2.80505 13.1359 2.7009C13.2451 2.59673 13.2997 2.47025 13.2997 2.32143ZM17.9817 10.4129L17.9817 17.1429L16.4834 17.1429L16.4834 18.5714C16.4834 18.9658 16.3372 19.3025 16.0446 19.5815C15.7518 19.8605 15.3988 20 14.9852 20C14.5717 20 14.2185 19.8605 13.9259 19.5815C13.6333 19.3025 13.4869 18.9658 13.4869 18.5714L13.4869 17.1429L4.49756 17.1429L4.49756 18.5714C4.49756 18.9658 4.3512 19.3025 4.05859 19.5815C3.76599 19.8605 3.41284 20 2.99927 20C2.58569 20 2.23267 19.8605 1.93994 19.5815C1.64734 19.3025 1.5011 18.9658 1.5011 18.5714L1.5011 17.1429L0.00280762 17.1429L0.00280762 10.4129C0.00280762 9.57962 0.100342 8.75 0.29541 7.9241L1.5011 2.85715C1.57129 2.27678 1.95166 1.76712 2.64233 1.32812C3.33289 0.88913 4.23022 0.558029 5.33447 0.334824C6.4386 0.111603 7.65784 0 8.99231 0C10.3267 0 11.5459 0.111603 12.65 0.334824C13.7543 0.558029 14.6516 0.88913 15.3422 1.32812C16.0328 1.76712 16.4132 2.27678 16.4834 2.85715L17.7125 7.9241C17.892 8.68303 17.9817 9.51265 17.9817 10.4129Z" fill="#1D2E5B" fill-opacity="1.000000" fill-rule="nonzero"/>
	</g>
</svg>
