<svg width="21.801636" height="24.000000" viewBox="0 0 21.8016 24" fill="none" xmlns="http://www.w3.org/2000/svg" xmlns:xlink="http://www.w3.org/1999/xlink">
	<desc>
			Created with Pixso.
	</desc>
	<defs>
		<clipPath id="clip1_594">
			<rect width="21.801666" height="24.000000" fill="white" fill-opacity="0"/>
		</clipPath>
	</defs>
	<rect width="21.801666" height="24.000000" fill="#FFFFFF" fill-opacity="0"/>
	<g clip-path="url(#clip1_594)">
		<path d="M17.2598 4C17.2598 5.10457 16.4463 6 15.4429 6C14.4395 6 13.6261 5.10457 13.6261 4C13.6261 2.89543 14.4395 2 15.4429 2C16.4463 2 17.2598 2.89543 17.2598 4Z" fill="#1D2E5B" fill-opacity="1.000000" fill-rule="evenodd"/>
		<path d="M14.332 10.969C14.5405 11.3111 14.8396 11.5742 15.1887 11.7227C15.5378 11.8712 15.9199 11.8978 16.2832 11.799L19.2955 10.97L18.8568 9.02997L15.8445 9.85896L14.5918 7.79196C14.3242 7.35054 13.9088 7.04353 13.4363 6.93797L9.94263 6.16797C9.55176 6.08162 9.146 6.13933 8.78784 6.33217C8.42981 6.52502 8.13928 6.84229 7.96143 7.23497L6.4552 10.551L8.08032 11.446L9.58655 8.12897L11.3733 8.52296L6.75317 17L2.72534 17L2.72534 19L6.75317 19C7.38721 19 7.98413 18.628 8.31116 18.029L10.0535 14.833L14.7489 15.867L16.3987 21.316L18.121 20.683L16.4722 15.235C16.3705 14.9005 16.1904 14.6014 15.9502 14.368C15.7101 14.1344 15.4182 13.9748 15.1041 13.905L12.3435 13.298L13.9532 10.344L14.332 10.969Z" fill="#1D2E5B" fill-opacity="1.000000" fill-rule="nonzero"/>
	</g>
</svg>
