<svg width="43.966675" height="44.000000" viewBox="0 0 43.9667 44" fill="none" xmlns="http://www.w3.org/2000/svg" xmlns:xlink="http://www.w3.org/1999/xlink">
	<desc>
			Created with Pixso.
	</desc>
	<defs>
		<clipPath id="clip1_817">
			<rect id="icon_bus" width="22.982588" height="22.000000" transform="translate(9.992432 11.000000)" fill="white" fill-opacity="0"/>
		</clipPath>
	</defs>
	<ellipse id="Ellipse 2" cx="21.483765" cy="21.500000" rx="21.483723" ry="21.500000" fill="#FFFFFF" fill-opacity="1.000000"/>
	<rect id="icon_bus" width="22.982588" height="22.000000" transform="translate(9.992432 11.000000)" fill="#FFFFFF" fill-opacity="0"/>
	<g clip-path="url(#clip1_817)">
		<path id="Vector" d="M15.7394 25.9286C15.7394 25.4948 15.5524 25.1244 15.1785 24.8175C14.8046 24.5106 14.3534 24.3571 13.825 24.3571C13.2965 24.3571 12.8453 24.5106 12.4714 24.8175C12.0974 25.1244 11.9105 25.4948 11.9105 25.9286C11.9105 26.3624 12.0974 26.7327 12.4714 27.0396C12.8453 27.3465 13.2965 27.5 13.825 27.5C14.3534 27.5 14.8046 27.3465 15.1785 27.0396C15.5524 26.7327 15.7394 26.3624 15.7394 25.9286ZM31.0547 25.9286C31.0547 25.4948 30.8678 25.1244 30.4938 24.8175C30.1199 24.5106 29.6687 24.3571 29.1403 24.3571C28.6118 24.3571 28.1606 24.5106 27.7867 24.8175C27.4128 25.1244 27.2258 25.4948 27.2258 25.9286C27.2258 26.3624 27.4128 26.7327 27.7867 27.0396C28.1606 27.3465 28.6118 27.5 29.1403 27.5C29.6687 27.5 30.1199 27.3465 30.4938 27.0396C30.8678 26.7327 31.0547 26.3624 31.0547 25.9286ZM30.3667 21.067L29.2898 16.3527C29.24 16.1644 29.1278 16.011 28.9534 15.8923C28.7788 15.7736 28.5769 15.7143 28.3475 15.7143L14.6177 15.7143C14.3883 15.7143 14.1864 15.7736 14.0118 15.8923C13.8374 16.011 13.7252 16.1644 13.6754 16.3527L12.5985 21.067C12.5487 21.3125 12.6184 21.5294 12.8079 21.7176C12.9973 21.9059 13.2416 22 13.5408 22L29.4244 22C29.7236 22 29.9679 21.9059 30.1573 21.7176C30.3468 21.5294 30.4165 21.3125 30.3667 21.067ZM26.9866 13.5536C26.9866 13.3899 26.9167 13.2507 26.7772 13.1362C26.6376 13.0216 26.468 12.9643 26.2687 12.9643L16.6965 12.9643C16.4972 12.9643 16.3276 13.0216 16.188 13.1362C16.0485 13.2507 15.9786 13.3899 15.9786 13.5536C15.9786 13.7173 16.0485 13.8564 16.188 13.971C16.3276 14.0856 16.4972 14.1429 16.6965 14.1429L26.2687 14.1429C26.468 14.1429 26.6376 14.0856 26.7772 13.971C26.9167 13.8564 26.9866 13.7173 26.9866 13.5536ZM32.9691 22.4542L32.9691 29.8571L31.0547 29.8571L31.0547 31.4286C31.0547 31.8624 30.8678 32.2327 30.4938 32.5396C30.1199 32.8465 29.6687 33 29.1403 33C28.6118 33 28.1606 32.8465 27.7867 32.5396C27.4128 32.2327 27.2258 31.8624 27.2258 31.4286L27.2258 29.8571L15.7394 29.8571L15.7394 31.4286C15.7394 31.8624 15.5524 32.2327 15.1785 32.5396C14.8046 32.8465 14.3534 33 13.825 33C13.2965 33 12.8453 32.8465 12.4714 32.5396C12.0974 32.2327 11.9105 31.8624 11.9105 31.4286L11.9105 29.8571L9.99609 29.8571L9.99609 22.4542C9.99609 21.5376 10.1207 20.625 10.37 19.7165L11.9105 14.1429C12.0002 13.5045 12.4863 12.9438 13.3688 12.4609C14.2512 11.9781 15.3978 11.6138 16.8087 11.3683C18.2196 11.1228 19.7776 11 21.4825 11C23.1876 11 24.7456 11.1228 26.1565 11.3683C27.5674 11.6138 28.714 11.9781 29.5964 12.4609C30.4789 12.9438 30.965 13.5045 31.0547 14.1429L32.6251 19.7165C32.8545 20.5513 32.9691 21.4639 32.9691 22.4542Z" fill="#1D2E5B" fill-opacity="1.000000" fill-rule="nonzero"/>
	</g>
</svg>
