<svg width="43.966675" height="44.000000" viewBox="0 0 43.9667 44" fill="none" xmlns="http://www.w3.org/2000/svg" xmlns:xlink="http://www.w3.org/1999/xlink">
	<desc>
			Created with Pixso.
	</desc>
	<defs>
		<clipPath id="clip1_821">
			<rect id="icon_bicycle" width="22.982588" height="22.000000" transform="translate(9.992432 11.000000)" fill="white" fill-opacity="0"/>
		</clipPath>
	</defs>
	<ellipse id="Ellipse 2" cx="21.483765" cy="21.500000" rx="21.483723" ry="21.500000" fill="#FFFFFF" fill-opacity="1.000000"/>
	<g clip-path="url(#clip1_821)">
		<g opacity="0.150000">
			<path id="Vector" d="M27.4088 30.25C26.592 30.25 25.7937 30.0182 25.1145 29.5838C24.4354 29.1494 23.9061 28.532 23.5935 27.8097C23.281 27.0873 23.1992 26.2925 23.3585 25.5257C23.5178 24.7588 23.9111 24.0544 24.4888 23.5016C25.0663 22.9487 25.8021 22.5722 26.6031 22.4197C27.4043 22.2672 28.2346 22.3455 28.9893 22.6447C29.7438 22.9439 30.3888 23.4505 30.8425 24.1006C31.2964 24.7507 31.5386 25.515 31.5386 26.2969C31.5374 27.345 31.1019 28.3498 30.3276 29.0909C29.5535 29.832 28.5038 30.2489 27.4088 30.25ZM27.4088 23.7188C26.8762 23.7188 26.3555 23.8699 25.9126 24.1532C25.4696 24.4365 25.1244 24.8392 24.9207 25.3103C24.7168 25.7814 24.6635 26.2997 24.7673 26.7999C24.8712 27.3 25.1278 27.7593 25.5044 28.1199C25.8811 28.4804 26.361 28.726 26.8834 28.8255C27.4059 28.9249 27.9474 28.8739 28.4396 28.6788C28.9316 28.4836 29.3523 28.1532 29.6482 27.7292C29.9442 27.3052 30.1022 26.8068 30.1022 26.2969C30.1013 25.6134 29.8173 24.9581 29.3124 24.4747C28.8075 23.9914 28.1229 23.7195 27.4088 23.7188Z" fill="#1D2E5B" fill-opacity="1.000000" fill-rule="nonzero"/>
		</g>
		<g opacity="0.150000">
			<path id="Vector" d="M15.5585 30.25C14.7417 30.25 13.9434 30.0182 13.2642 29.5838C12.5851 29.1494 12.0558 28.532 11.7432 27.8097C11.4307 27.0873 11.3489 26.2925 11.5082 25.5257C11.6675 24.7588 12.0608 24.0544 12.6384 23.5016C13.2159 22.9487 13.9518 22.5722 14.7528 22.4197C15.554 22.2672 16.3843 22.3455 17.1389 22.6447C17.8934 22.9439 18.5385 23.4505 18.9922 24.1006C19.446 24.7507 19.6882 25.515 19.6882 26.2969C19.687 27.345 19.2516 28.3498 18.4773 29.0909C17.7031 29.832 16.6534 30.2489 15.5585 30.25ZM15.5585 23.7188C15.0259 23.7188 14.5051 23.8699 14.0623 24.1532C13.6193 24.4365 13.274 24.8392 13.0703 25.3103C12.8665 25.7814 12.8131 26.2997 12.917 26.7999C13.0209 27.3 13.2775 27.7593 13.6541 28.1199C14.0308 28.4804 14.5106 28.726 15.0331 28.8255C15.5555 28.9249 16.097 28.8739 16.5892 28.6788C17.0813 28.4836 17.502 28.1532 17.7979 27.7292C18.0939 27.3052 18.2518 26.8068 18.2518 26.2969C18.251 25.6134 17.9669 24.9581 17.462 24.4747C16.9572 23.9914 16.2726 23.7195 15.5585 23.7188Z" fill="#1D2E5B" fill-opacity="1.000000" fill-rule="nonzero"/>
		</g>
		<g opacity="0.150000">
			<path id="Vector" d="M24.3564 16.5C24.5457 16.5006 24.7332 16.4654 24.908 16.3962C25.0829 16.3271 25.2417 16.2254 25.3752 16.0972C25.5088 15.9689 25.6145 15.8166 25.6862 15.649C25.7579 15.4814 25.7942 15.3018 25.7928 15.1207C25.795 14.9405 25.7595 14.7617 25.6886 14.5948C25.6177 14.4279 25.5127 14.2762 25.3798 14.1485C25.2468 14.0209 25.0887 13.9199 24.9146 13.8515C24.7404 13.7831 24.5537 13.7486 24.3655 13.75C24.1769 13.7495 23.99 13.7845 23.8154 13.853C23.641 13.9216 23.4823 14.0224 23.3485 14.1497C23.2146 14.277 23.1084 14.4283 23.0356 14.5948C22.9629 14.7615 22.9252 14.9402 22.9246 15.1207C22.924 15.3013 22.9606 15.4802 23.0322 15.6472C23.1039 15.8143 23.2091 15.9662 23.3422 16.0942C23.4751 16.2223 23.6331 16.3241 23.8071 16.3937C23.9812 16.4633 24.1678 16.4995 24.3564 16.5Z" fill="#1D2E5B" fill-opacity="1.000000" fill-rule="nonzero"/>
		</g>
		<g opacity="0.150000">
			<path id="Vector" d="M26.491 19.2501L24.5266 19.2501C24.4944 19.2501 24.4628 19.2418 24.4351 19.2261C24.4073 19.2103 24.3845 19.1878 24.369 19.1607L22.9443 16.6612C22.844 16.4754 22.6992 16.3149 22.5221 16.1927C22.3448 16.0704 22.14 15.9898 21.9242 15.9573C21.7084 15.9249 21.4875 15.9416 21.2797 16.006C21.0719 16.0704 20.8828 16.1808 20.7278 16.3282L17.5919 19.3532C17.3285 19.6106 17.179 19.9554 17.1744 20.3157C17.1744 21.0634 17.74 21.3298 18.0049 21.4801C19.2842 22.1857 20.1851 22.7018 20.6793 22.9884C20.7056 23.0037 20.7273 23.0252 20.7424 23.0508C20.7574 23.0765 20.7654 23.1054 20.7655 23.1349L20.7655 26.1049C20.7655 26.4748 21.0626 26.7924 21.4491 26.8109C21.5461 26.8153 21.6431 26.8009 21.7341 26.7685C21.8252 26.7361 21.9084 26.6863 21.9788 26.6222C22.0492 26.5581 22.1052 26.4809 22.1436 26.3955C22.1819 26.3101 22.2018 26.2181 22.2019 26.1251L22.2019 22.4298C22.2019 22.3206 22.1748 22.213 22.1229 22.1159C22.0709 22.0188 21.9955 21.9349 21.903 21.8712L20.2421 20.7278C20.2212 20.7135 20.2039 20.6951 20.191 20.6738C20.1782 20.6526 20.1703 20.629 20.1678 20.6045C20.1654 20.5801 20.1685 20.5555 20.1768 20.5322C20.1851 20.509 20.1985 20.4878 20.2161 20.47L22.1013 18.5454C22.1206 18.5256 22.1447 18.5104 22.1713 18.5012C22.1979 18.4919 22.2263 18.4888 22.2544 18.4921C22.2826 18.4955 22.3094 18.5051 22.3329 18.5202C22.3563 18.5354 22.3757 18.5556 22.3895 18.5793L23.369 20.2714C23.4313 20.3787 23.5223 20.4681 23.6328 20.5302C23.7433 20.5924 23.8693 20.6252 23.9974 20.6251L26.5111 20.6251C26.6084 20.6252 26.7047 20.6064 26.7942 20.5698C26.8837 20.5332 26.9645 20.4795 27.0316 20.4122C27.0988 20.3448 27.1509 20.265 27.1849 20.1777C27.2189 20.0905 27.234 19.9975 27.2294 19.9045C27.2104 19.5345 26.8774 19.2501 26.491 19.2501Z" fill="#1D2E5B" fill-opacity="1.000000" fill-rule="nonzero"/>
		</g>
	</g>
</svg>
