<svg width="49.962158" height="50.000000" viewBox="0 0 49.9622 50" fill="none" xmlns="http://www.w3.org/2000/svg" xmlns:xlink="http://www.w3.org/1999/xlink">
	<desc>
			Created with Pixso.
	</desc>
	<defs>
		<clipPath id="clip1_665">
			<rect id="icon_heart" width="19.984859" height="20.000000" transform="translate(14.988525 15.000000)" fill="white" fill-opacity="0"/>
		</clipPath>
	</defs>
	<ellipse id="Ellipse 20" cx="24.980957" cy="25.000000" rx="24.981075" ry="25.000000" fill="#E2E5F2" fill-opacity="1.000000"/>
	<rect id="icon_heart" width="19.984859" height="20.000000" transform="translate(14.988525 15.000000)" fill="#FFFFFF" fill-opacity="0"/>
	<g clip-path="url(#clip1_665)">
		<g opacity="0.500000">
			<path id="Vector" d="M24.981 23.1244L26.0977 20.7756C26.375 20.194 26.8557 19.3576 27.5366 18.6815C28.2061 18.0158 29.0078 17.5629 29.9771 17.5629C32.0706 17.5629 33.7244 19.3038 33.7244 21.3966C33.7244 22.9865 33.0325 24.109 31.3911 25.821C30.9702 26.2596 30.4905 26.7335 29.9597 27.2561C28.5757 28.6215 26.8545 30.3204 24.981 32.5917C23.1074 30.3204 21.3862 28.6215 20.0022 27.2561C19.4714 26.7335 18.9905 26.2582 18.5708 25.821C16.9294 24.109 16.2375 22.9865 16.2375 21.3966C16.2375 19.3038 17.8914 17.5629 19.9846 17.5629C20.9541 17.5629 21.7559 18.0158 22.4253 18.6815C23.1062 19.3576 23.5869 20.194 23.8643 20.7756L24.981 23.1244ZM25.4707 34.0109C25.4104 34.0858 25.3354 34.146 25.251 34.1873C25.1663 34.2286 25.0742 34.25 24.981 34.25C24.8877 34.25 24.7957 34.2286 24.7109 34.1873C24.6265 34.146 24.5515 34.0858 24.4912 34.0109C22.4917 31.5138 20.6816 29.7282 19.1917 28.2591C16.6123 25.7134 14.9885 24.113 14.9885 21.3966C14.9885 18.5541 17.2244 16.25 19.9846 16.25C21.9832 16.25 23.3809 17.6285 24.2366 18.8863C24.5613 19.3655 24.8086 19.8264 24.981 20.1887C25.197 19.7352 25.4458 19.2998 25.7253 18.8863C26.5811 17.6272 27.9788 16.25 29.9771 16.25C32.7375 16.25 34.9734 18.5541 34.9734 21.3966C34.9734 24.113 33.3496 25.7134 30.7703 28.2591C29.2803 29.7296 27.4702 31.5151 25.4707 34.0096L25.4707 34.0109Z" fill="#192144" fill-opacity="1.000000" fill-rule="evenodd"/>
		</g>
	</g>
</svg>
