<svg width="21.983398" height="22.000000" viewBox="0 0 21.9834 22" fill="none" xmlns="http://www.w3.org/2000/svg" xmlns:xlink="http://www.w3.org/1999/xlink">
	<desc>
			Created with Pixso.
	</desc>
	<defs>
		<clipPath id="clip1_492">
			<rect width="21.983345" height="21.999998" fill="white" fill-opacity="0"/>
		</clipPath>
	</defs>
	<rect width="21.983345" height="21.999998" fill="#FFFFFF" fill-opacity="0"/>
	<g clip-path="url(#clip1_492)">
		<path d="M17.7161 1.18341C16.9471 1.36371 16.1744 1.54485 15.8872 2.04149L13.6635 6.41438L1.72034 9.21451L1.23669 10.6118L10.3762 11.4659L8.82617 15.2516L5.36023 16.0642L4.49023 17.552L6.99084 17.8203L7.27612 19.0373C7.40393 19.4687 7.85229 19.7567 8.23499 19.667L9.39038 19.3961L10.73 21.6497L11.6 20.1619L10.744 16.511L13.2531 13.3551L18.0426 21.6484L19.0081 20.5675L16.0594 7.99104L18.7649 3.93449C19.0558 3.43701 18.8658 2.62697 18.675 1.81314C18.5806 1.41002 18.0988 1.09367 17.7161 1.18341Z" fill="#1D2E5B" fill-opacity="1.000000" fill-rule="nonzero"/>
	</g>
</svg>
