<svg width="43.966675" height="44.000000" viewBox="0 0 43.9667 44" fill="none" xmlns="http://www.w3.org/2000/svg" xmlns:xlink="http://www.w3.org/1999/xlink">
	<desc>
			Created with Pixso.
	</desc>
	<defs>
		<clipPath id="clip1_828">
			<rect id="icon_run" width="22.982588" height="22.000000" transform="translate(9.992432 11.000000)" fill="white" fill-opacity="0"/>
		</clipPath>
	</defs>
	<ellipse id="Ellipse 2" cx="21.483765" cy="21.500000" rx="21.483723" ry="21.500000" fill="#FFFFFF" fill-opacity="1.000000"/>
	<rect id="icon_run" width="22.982588" height="22.000000" transform="translate(9.992432 11.000000)" fill="#FFFFFF" fill-opacity="0"/>
	<g clip-path="url(#clip1_828)">
		<path id="Vector" d="M28.187 14.6667C28.187 15.6792 27.3295 16.5 26.2717 16.5C25.214 16.5 24.3566 15.6792 24.3566 14.6667C24.3566 13.6542 25.214 12.8333 26.2717 12.8333C27.3295 12.8333 28.187 13.6542 28.187 14.6667Z" fill="#1D2E5B" fill-opacity="1.000000" fill-rule="evenodd"/>
		<path id="Vector" d="M25.1006 21.0549C25.3204 21.3685 25.6357 21.6097 26.0038 21.7458C26.3717 21.8819 26.7745 21.9063 27.1576 21.8157L30.333 21.0558L29.8705 19.2775L26.6949 20.0374L25.3745 18.1426C25.0923 17.738 24.6544 17.4566 24.1564 17.3598L20.4734 16.654C20.0614 16.5748 19.6337 16.6277 19.2561 16.8045C18.8787 16.9813 18.5725 17.2721 18.3849 17.632L16.7971 20.6717L18.5104 21.4921L20.098 18.4516L21.9817 18.8127L17.1113 26.5833L12.8652 26.5833L12.8652 28.4166L17.1113 28.4166C17.7797 28.4166 18.4088 28.0756 18.7535 27.5266L20.5902 24.5969L25.5402 25.5447L27.2792 30.5396L29.0947 29.9594L27.3567 24.9654C27.2495 24.6588 27.0597 24.3847 26.8065 24.1706C26.5533 23.9566 26.2456 23.8102 25.9146 23.7462L23.0044 23.1898L24.7013 20.482L25.1006 21.0549Z" fill="#1D2E5B" fill-opacity="1.000000" fill-rule="nonzero"/>
	</g>
</svg>
